<svg width="22" height="20" viewBox="0 0 22 20" fill="none" xmlns="http://www.w3.org/2000/svg">
<path d="M5.44359 0.328428C7.25731 -0.260384 9.2199 -0.0485 10.862 0.891911L11.1339 1.05656L11.4106 0.890988C12.9675 0.00135538 14.8144 -0.236367 16.5524 0.246074L16.8266 0.328489C20.6172 1.56021 22.3145 5.73751 21.0394 9.73454C20.4 11.5939 19.3515 13.2796 17.9675 14.6692C16.0842 16.5151 14.0081 18.1452 11.7794 19.5284L11.5428 19.6768C11.3026 19.8275 10.9989 19.8301 10.7562 19.6835L10.5028 19.5303C8.27098 18.1452 6.19487 16.5151 4.3051 14.6627C2.92755 13.2796 1.87905 11.5939 1.23435 9.71825C-0.0361345 5.73509 1.6541 1.55977 5.44359 0.328428ZM10.4922 2.45237C9.14624 1.52385 7.45641 1.27436 5.90641 1.77756C2.97102 2.73137 1.64023 6.01876 2.66614 9.23578C3.23039 10.8768 4.15546 12.3641 5.36382 13.5774C7.16787 15.3457 9.15648 16.9071 11.2863 18.229L11.1389 18.1353L11.6218 17.8287C13.3077 16.7302 14.8956 15.4835 16.3638 14.1064L16.9088 13.5839C18.1236 12.3641 19.0487 10.8768 19.6076 9.25207C20.6379 6.02183 19.3013 2.73213 16.3643 1.7778C14.7369 1.25086 12.9603 1.55267 11.5876 2.58985C11.3241 2.78898 10.9629 2.79283 10.6952 2.59935L10.4922 2.45237ZM15.1322 4.14973C16.496 4.58907 17.4632 5.82145 17.5839 7.2693C17.6188 7.68823 17.3104 8.05639 16.8949 8.09161C16.4795 8.12682 16.1144 7.81576 16.0795 7.39683C16.0098 6.56045 15.4533 5.85141 14.6728 5.59997C14.2756 5.47204 14.0565 5.04369 14.1834 4.64322C14.3103 4.24274 14.735 4.0218 15.1322 4.14973Z" fill="black"/>
</svg>
