<svg width="24" height="24" viewBox="0 0 24 24" fill="none" xmlns="http://www.w3.org/2000/svg">
<path d="M20.027 8.04967L20.0269 8.04972L20.0331 8.05451C20.5883 8.48457 20.9309 9.12305 20.9914 9.82181L21.0003 10.0017V18.0982C21.0003 19.9129 19.5693 21.3957 17.7666 21.4982H15.7957C15.1063 21.4821 14.5501 20.9451 14.499 20.2728C14.4989 20.2724 14.4989 20.2721 14.4989 20.2717L14.4903 20.1505V17.3092C14.4903 16.7398 14.0684 16.2835 13.5317 16.1949L13.5187 16.1928L13.5055 16.1913L13.4155 16.1813L13.388 16.1782H13.3603H10.6893H10.6815L10.6736 16.1785C10.1237 16.1957 9.64879 16.5964 9.57469 17.1522L9.57456 17.1521L9.5733 17.1636L9.5633 17.2546L9.56031 17.2818V17.3092V20.1592C9.56031 20.1589 9.5603 20.1616 9.55984 20.1677C9.55942 20.1733 9.55874 20.1803 9.55771 20.1887L9.54789 20.2093L9.53654 20.2805L9.52554 20.3495L9.52545 20.3495L9.52412 20.359C9.43836 20.9723 8.93355 21.4457 8.29533 21.4905L8.18301 21.4982H6.41031C4.59139 21.4982 3.1026 20.0749 3.00031 18.2844V9.992C3.00845 9.28937 3.31313 8.63693 3.8235 8.17995L10.0425 3.17881C11.136 2.31082 12.6679 2.27564 13.7953 3.07274L13.9446 3.18401L20.027 8.04967ZM10.4645 3.35117L10.4551 3.35742L10.4459 3.3641L10.2949 3.4741L10.285 3.48129L10.2755 3.48896L4.20275 8.38412C3.74177 8.73004 3.46906 9.24403 3.40398 9.77771L3.40239 9.79079L3.40148 9.80394L3.39048 9.96394L3.38931 9.98107V9.99823V18.0982C3.38931 19.6956 4.6381 21.0015 6.22008 21.0973L6.23518 21.0982H6.25031H8.2003C8.63624 21.0982 9.06702 20.7971 9.1346 20.3076L9.13471 20.3076L9.13594 20.2972L9.15469 20.1364L9.16096 20.1044L9.17031 20.0568V20.0082V17.3092C9.17031 16.5088 9.7777 15.8577 10.5609 15.7882H13.3603C14.1593 15.7882 14.8108 16.3961 14.8803 17.1798V20.1682C14.8803 20.6146 15.197 21.0037 15.6346 21.089L15.682 21.0982H15.7303H17.5893C19.1905 21.0982 20.5009 19.8671 20.5982 18.2908C20.5983 18.2901 20.5983 18.2894 20.5984 18.2887L20.6091 18.1325L20.6103 18.1154V18.0982V9.99823H20.6105L20.6101 9.98542C20.5957 9.42292 20.3603 8.89793 19.9574 8.50935L19.9465 8.49883L19.935 8.48899L19.805 8.37799L19.7989 8.37279L19.7927 8.3678L13.6933 3.4883C13.6932 3.48824 13.6931 3.48818 13.6931 3.48813C12.758 2.73778 11.4397 2.70632 10.4645 3.35117Z" fill="#3B5162"/>
<path d="M20.027 8.04967L20.0269 8.04972L20.0331 8.05451C20.5883 8.48457 20.9309 9.12305 20.9914 9.82181L21.0003 10.0017V18.0982C21.0003 19.9129 19.5693 21.3957 17.7666 21.4982H15.7957C15.1063 21.4821 14.5501 20.9451 14.499 20.2728C14.4989 20.2724 14.4989 20.2721 14.4989 20.2717L14.4903 20.1505V17.3092C14.4903 16.7398 14.0684 16.2835 13.5317 16.1949L13.5187 16.1928L13.5055 16.1913L13.4155 16.1813L13.388 16.1782H13.3603H10.6893H10.6815L10.6736 16.1785C10.1237 16.1957 9.64879 16.5964 9.57469 17.1522L9.57456 17.1521L9.5733 17.1636L9.5633 17.2546L9.56031 17.2818V17.3092V20.1592C9.56031 20.1589 9.5603 20.1616 9.55984 20.1677C9.55942 20.1733 9.55874 20.1803 9.55771 20.1887L9.54789 20.2093L9.53654 20.2805L9.52554 20.3495L9.52545 20.3495L9.52412 20.359C9.43836 20.9723 8.93355 21.4457 8.29533 21.4905L8.18301 21.4982H6.41031C4.59139 21.4982 3.1026 20.0749 3.00031 18.2844V9.992C3.00845 9.28937 3.31313 8.63693 3.8235 8.17995L10.0425 3.17881C11.136 2.31082 12.6679 2.27564 13.7953 3.07274L13.9446 3.18401L20.027 8.04967ZM10.4645 3.35117L10.4551 3.35742L10.4459 3.3641L10.2949 3.4741L10.285 3.48129L10.2755 3.48896L4.20275 8.38412C3.74177 8.73004 3.46906 9.24403 3.40398 9.77771L3.40239 9.79079L3.40148 9.80394L3.39048 9.96394L3.38931 9.98107V9.99823V18.0982C3.38931 19.6956 4.6381 21.0015 6.22008 21.0973L6.23518 21.0982H6.25031H8.2003C8.63624 21.0982 9.06702 20.7971 9.1346 20.3076L9.13471 20.3076L9.13594 20.2972L9.15469 20.1364L9.16096 20.1044L9.17031 20.0568V20.0082V17.3092C9.17031 16.5088 9.7777 15.8577 10.5609 15.7882H13.3603C14.1593 15.7882 14.8108 16.3961 14.8803 17.1798V20.1682C14.8803 20.6146 15.197 21.0037 15.6346 21.089L15.682 21.0982H15.7303H17.5893C19.1905 21.0982 20.5009 19.8671 20.5982 18.2908C20.5983 18.2901 20.5983 18.2894 20.5984 18.2887L20.6091 18.1325L20.6103 18.1154V18.0982V9.99823H20.6105L20.6101 9.98542C20.5957 9.42292 20.3603 8.89793 19.9574 8.50935L19.9465 8.49883L19.935 8.48899L19.805 8.37799L19.7989 8.37279L19.7927 8.3678L13.6933 3.4883C13.6932 3.48824 13.6931 3.48818 13.6931 3.48813C12.758 2.73778 11.4397 2.70632 10.4645 3.35117Z" stroke="black"/>
<path d="M20.027 8.04967L20.0269 8.04972L20.0331 8.05451C20.5883 8.48457 20.9309 9.12305 20.9914 9.82181L21.0003 10.0017V18.0982C21.0003 19.9129 19.5693 21.3957 17.7666 21.4982H15.7957C15.1063 21.4821 14.5501 20.9451 14.499 20.2728C14.4989 20.2724 14.4989 20.2721 14.4989 20.2717L14.4903 20.1505V17.3092C14.4903 16.7398 14.0684 16.2835 13.5317 16.1949L13.5187 16.1928L13.5055 16.1913L13.4155 16.1813L13.388 16.1782H13.3603H10.6893H10.6815L10.6736 16.1785C10.1237 16.1957 9.64879 16.5964 9.57469 17.1522L9.57456 17.1521L9.5733 17.1636L9.5633 17.2546L9.56031 17.2818V17.3092V20.1592C9.56031 20.1589 9.5603 20.1616 9.55984 20.1677C9.55942 20.1733 9.55874 20.1803 9.55771 20.1887L9.54789 20.2093L9.53654 20.2805L9.52554 20.3495L9.52545 20.3495L9.52412 20.359C9.43836 20.9723 8.93355 21.4457 8.29533 21.4905L8.18301 21.4982H6.41031C4.59139 21.4982 3.1026 20.0749 3.00031 18.2844V9.992C3.00845 9.28937 3.31313 8.63693 3.8235 8.17995L10.0425 3.17881C11.136 2.31082 12.6679 2.27564 13.7953 3.07274L13.9446 3.18401L20.027 8.04967ZM10.4645 3.35117L10.4551 3.35742L10.4459 3.3641L10.2949 3.4741L10.285 3.48129L10.2755 3.48896L4.20275 8.38412C3.74177 8.73004 3.46906 9.24403 3.40398 9.77771L3.40239 9.79079L3.40148 9.80394L3.39048 9.96394L3.38931 9.98107V9.99823V18.0982C3.38931 19.6956 4.6381 21.0015 6.22008 21.0973L6.23518 21.0982H6.25031H8.2003C8.63624 21.0982 9.06702 20.7971 9.1346 20.3076L9.13471 20.3076L9.13594 20.2972L9.15469 20.1364L9.16096 20.1044L9.17031 20.0568V20.0082V17.3092C9.17031 16.5088 9.7777 15.8577 10.5609 15.7882H13.3603C14.1593 15.7882 14.8108 16.3961 14.8803 17.1798V20.1682C14.8803 20.6146 15.197 21.0037 15.6346 21.089L15.682 21.0982H15.7303H17.5893C19.1905 21.0982 20.5009 19.8671 20.5982 18.2908C20.5983 18.2901 20.5983 18.2894 20.5984 18.2887L20.6091 18.1325L20.6103 18.1154V18.0982V9.99823H20.6105L20.6101 9.98542C20.5957 9.42292 20.3603 8.89793 19.9574 8.50935L19.9465 8.49883L19.935 8.48899L19.805 8.37799L19.7989 8.37279L19.7927 8.3678L13.6933 3.4883C13.6932 3.48824 13.6931 3.48818 13.6931 3.48813C12.758 2.73778 11.4397 2.70632 10.4645 3.35117Z" stroke="black" stroke-opacity="0.2"/>
</svg>
